<?xml version="1.0" standalone="no"?>
<!DOCTYPE svg PUBLIC "-//W3C//DTD SVG 20010904//EN"
 "http://www.w3.org/TR/2001/REC-SVG-20010904/DTD/svg10.dtd">
<svg version="1.0" xmlns="http://www.w3.org/2000/svg"
 width="1280.000000pt" height="922.000000pt" viewBox="0 0 1280.000000 922.000000"
 preserveAspectRatio="xMidYMid meet">
<metadata>
Created by potrace 1.15, written by Peter Selinger 2001-2017
</metadata>
<g transform="translate(0.000000,922.000000) scale(0.100000,-0.100000)"
fill="#000000" stroke="none">
<path d="M5075 9214 c-1519 -36 -2713 -142 -3490 -310 -524 -113 -779 -251
-724 -390 6 -16 13 -48 14 -72 11 -137 222 -241 725 -356 286 -65 804 -140
1280 -186 118 -11 235 -23 259 -26 l43 -6 -6 -61 c-3 -34 -10 -138 -16 -232
-6 -93 -15 -183 -20 -200 -8 -28 -17 -136 -40 -500 -26 -416 -31 -505 -45
-715 -9 -124 -20 -283 -25 -355 -5 -71 -19 -256 -30 -410 -11 -154 -25 -338
-30 -410 -5 -71 -14 -195 -20 -275 -6 -80 -15 -203 -20 -275 -5 -71 -14 -195
-20 -275 -6 -80 -15 -203 -20 -275 -5 -71 -19 -256 -30 -410 -11 -154 -25
-338 -30 -410 -5 -71 -14 -195 -20 -275 -6 -80 -14 -201 -20 -270 -5 -69 -12
-166 -16 -216 l-7 -91 314 -61 c629 -123 947 -177 1349 -232 315 -42 389 -50
740 -82 197 -17 1016 -18 1205 0 799 73 1509 243 2450 584 121 44 233 85 248
90 l29 11 -7 71 c-3 39 -10 114 -15 166 -6 52 -17 166 -25 253 -31 322 -45
475 -55 572 -10 97 -25 254 -55 575 -9 85 -20 200 -25 255 -5 55 -17 171 -25
258 -8 86 -22 228 -30 315 -8 86 -20 202 -25 257 -5 55 -17 171 -25 258 -8 86
-22 228 -30 315 -21 211 -32 343 -45 492 -12 150 -47 546 -60 685 -5 55 -15
168 -21 250 -7 83 -16 152 -20 155 -6 5 -49 406 -49 460 0 26 0 26 138 38 319
30 760 88 1037 138 505 92 814 193 926 304 54 54 66 94 44 148 -9 20 -13 42
-10 50 9 25 -31 97 -72 130 -108 85 -310 158 -643 231 -687 152 -1635 247
-3010 301 -248 10 -1663 20 -1925 14z"/>
<path d="M12585 2452 c-16 -1 -70 -9 -120 -17 -49 -8 -148 -24 -220 -35 -71
-11 -200 -32 -285 -46 -85 -13 -210 -33 -277 -44 -68 -11 -178 -29 -245 -40
-68 -11 -194 -31 -280 -45 -87 -14 -229 -36 -315 -50 -87 -14 -183 -30 -213
-35 -30 -6 -127 -22 -215 -36 -178 -28 -323 -51 -557 -89 -87 -14 -229 -36
-315 -50 -157 -26 -297 -48 -528 -85 -231 -37 -371 -59 -527 -85 -87 -14 -229
-36 -315 -50 -87 -14 -213 -35 -280 -45 -68 -11 -178 -29 -245 -40 -68 -10
-194 -31 -280 -45 -87 -14 -229 -36 -315 -50 -87 -14 -212 -34 -278 -45 -263
-42 -377 -60 -530 -85 -371 -60 -476 -77 -592 -95 -68 -11 -179 -29 -248 -40
-69 -11 -180 -29 -247 -40 -68 -10 -194 -31 -280 -45 -87 -14 -229 -36 -315
-50 -87 -14 -212 -34 -278 -45 -263 -42 -377 -60 -530 -85 -371 -60 -476 -77
-592 -95 -68 -11 -178 -29 -245 -40 -281 -45 -454 -72 -633 -101 -308 -49
-445 -71 -840 -134 -88 -14 -230 -37 -315 -51 -85 -13 -210 -33 -278 -44 -818
-132 -765 -120 -815 -180 -36 -43 -42 -86 -24 -190 18 -107 43 -151 101 -179
51 -25 65 -25 187 -6 52 9 149 25 217 35 157 26 328 53 522 84 85 14 214 35
285 46 72 11 200 32 285 46 161 26 197 31 700 113 334 54 599 97 845 136 303
49 400 64 560 90 476 77 495 80 870 140 88 14 243 39 345 55 102 17 298 48
435 70 138 22 291 47 340 55 50 8 146 23 215 34 118 19 206 33 595 96 88 14
216 35 285 46 69 11 166 26 215 34 50 8 203 33 340 55 138 22 333 53 435 70
102 16 257 41 345 55 300 48 400 64 558 90 86 14 228 36 315 50 86 14 212 35
280 45 67 11 177 29 245 40 67 10 193 31 280 45 86 14 228 36 315 50 193 32
376 61 502 81 52 8 122 19 155 24 109 18 378 60 535 86 85 13 210 33 278 44
67 11 177 29 245 40 351 56 505 81 627 100 247 38 285 55 316 136 17 45 17 52
1 148 -10 58 -25 111 -35 125 -40 54 -100 80 -167 73z"/>
</g>
</svg>
